<?xml version="1.0" encoding="UTF-8"?>
<svg width="22px" height="22px" viewBox="0 0 22 22" version="1.1" xmlns="http://www.w3.org/2000/svg" xmlns:xlink="http://www.w3.org/1999/xlink">
    <!-- Generator: Sketch 63.1 (92452) - https://sketch.com -->
    <title>plus</title>
    <desc>Created with Sketch.</desc>
    <g id="Page-1" stroke="none" stroke-width="1" fill="none" fill-rule="evenodd">
        <g id="1.1" transform="translate(-1059.000000, -735.000000)" fill="#0096DA" fill-rule="nonzero">
            <g id="plus" transform="translate(1059.000000, 735.000000)">
                <path d="M18.778183,3.22181703 C16.7005768,1.1442108 13.9381561,0 11,0 C8.06184388,0 5.29942321,1.1442108 3.22181703,3.22181703 C1.1442108,5.29942321 -1.22124533e-15,8.06184388 -1.22124533e-15,11 C-1.22124533e-15,13.9381561 1.1442108,16.7005768 3.22181703,18.778183 C5.29942321,20.8557892 8.06184388,22 11,22 C13.9381561,22 16.7005768,20.8557892 18.778183,18.778183 C20.8557892,16.7005768 22,13.9381561 22,11 C22,8.06184388 20.8557892,5.29942321 18.778183,3.22181703 Z M11,20.28125 C5.88235476,20.28125 1.71875,16.1176452 1.71875,11 C1.71875,5.88235476 5.88235476,1.71875 11,1.71875 C16.1176452,1.71875 20.28125,5.88235476 20.28125,11 C20.28125,16.1176452 16.1176452,20.28125 11,20.28125 Z M11.859375,10.1397858 L15.7265625,10.1397858 L15.7265625,11.8585358 L11.859375,11.8585358 L11.859375,15.7257233 L10.140625,15.7257233 L10.140625,11.8585358 L6.2734375,11.8585358 L6.2734375,10.1397858 L10.140625,10.1397858 L10.140625,6.27259828 L11.859375,6.27259828 L11.859375,10.1397858 Z" id="Shape"></path>
            </g>
        </g>
    </g>
</svg>